<?xml version="1.0" encoding="UTF-8" standalone="no"?>
<svg
   xmlns:dc="http://purl.org/dc/elements/1.1/"
   xmlns:cc="http://creativecommons.org/ns#"
   xmlns:rdf="http://www.w3.org/1999/02/22-rdf-syntax-ns#"
   xmlns:svg="http://www.w3.org/2000/svg"
   xmlns="http://www.w3.org/2000/svg"
   xmlns:sodipodi="http://sodipodi.sourceforge.net/DTD/sodipodi-0.dtd"
   xmlns:inkscape="http://www.inkscape.org/namespaces/inkscape"
   height="512"
   viewBox="0 0 64 64"
   width="512"
   version="1.1"
   id="svg27"
   sodipodi:docname="home (2).svg"
   inkscape:version="0.92.4 5da689c313, 2019-01-14">
  <metadata
     id="metadata33">
    <rdf:RDF>
      <cc:Work
         rdf:about="">
        <dc:format>image/svg+xml</dc:format>
        <dc:type
           rdf:resource="http://purl.org/dc/dcmitype/StillImage" />
      </cc:Work>
    </rdf:RDF>
  </metadata>
  <defs
     id="defs31" />
  <sodipodi:namedview
     pagecolor="#ffffff"
     bordercolor="#666666"
     borderopacity="1"
     objecttolerance="10"
     gridtolerance="10"
     guidetolerance="10"
     inkscape:pageopacity="0"
     inkscape:pageshadow="2"
     inkscape:window-width="640"
     inkscape:window-height="480"
     id="namedview29"
     showgrid="false"
     inkscape:zoom="0.4753418"
     inkscape:cx="219.18439"
     inkscape:cy="256"
     inkscape:window-x="0"
     inkscape:window-y="0"
     inkscape:window-maximized="0"
     inkscape:current-layer="svg27" />
  <g
     id="home-home-monitor-networking"
     style="fill:#ff0066">
    <path
       d="m32 7a.947.947 0 0 1 .49.13l14.51 8.16v-2.71l-15-8.43-15 8.43v2.71l14.51-8.16a.947.947 0 0 1 .49-.13z"
       id="path2"
       style="fill:#ff0066" />
    <path
       d="m43 4h-3v2.35l3 1.69z"
       id="path4"
       style="fill:#ff0066" />
    <path
       d="m46 34v-16.43l-14-8.4-14 8.4v16.43h10v-8a1 1 0 0 1 1-1h6a1 1 0 0 1 1 1v8zm-14-13a4 4 0 1 1 4-4 4 4 0 0 1 -4 4z"
       id="path6"
       style="fill:#ff0066" />
    <circle
       cx="32"
       cy="17"
       r="2"
       id="circle8"
       style="fill:#ff0066" />
    <path
       d="m30 27h4v7h-4z"
       id="path10"
       style="fill:#ff0066" />
    <path
       d="m59 47h-10a1 1 0 0 0 -1 1v4h12v-4a1 1 0 0 0 -1-1z"
       id="path12"
       style="fill:#ff0066" />
    <path
       d="m48 55a1 1 0 0 0 1 1h4v1h-2v2h6v-2h-2v-1h4a1 1 0 0 0 1-1v-1h-12z"
       id="path14"
       style="fill:#ff0066" />
    <path
       d="m37 47h-10a1 1 0 0 0 -1 1v4h12v-4a1 1 0 0 0 -1-1z"
       id="path16"
       style="fill:#ff0066" />
    <path
       d="m26 55a1 1 0 0 0 1 1h4v1h-2v2h6v-2h-2v-1h4a1 1 0 0 0 1-1v-1h-12z"
       id="path18"
       style="fill:#ff0066" />
    <path
       d="m15 47h-10a1 1 0 0 0 -1 1v4h12v-4a1 1 0 0 0 -1-1z"
       id="path20"
       style="fill:#ff0066" />
    <path
       d="m4 55a1 1 0 0 0 1 1h4v1h-2v2h6v-2h-2v-1h4a1 1 0 0 0 1-1v-1h-12z"
       id="path22"
       style="fill:#ff0066" />
    <path
       d="m11 42h19.278a2.015 2.015 0 0 0 .722.722v2.278h2v-2.278a2.015 2.015 0 0 0 .722-.722h19.278v3h2v-4a1 1 0 0 0 -1-1h-20.278a2.015 2.015 0 0 0 -.722-.722v-4.278h-2v4.278a2.015 2.015 0 0 0 -.722.722h-20.278a1 1 0 0 0 -1 1v4h2z"
       id="path24"
       style="fill:#ff0066" />
  </g>
</svg>
